<?xml version="1.0" encoding="UTF-8" standalone="no"?>
<svg
   xmlns:dc="http://purl.org/dc/elements/1.1/"
   xmlns:cc="http://creativecommons.org/ns#"
   xmlns:rdf="http://www.w3.org/1999/02/22-rdf-syntax-ns#"
   xmlns:svg="http://www.w3.org/2000/svg"
   xmlns="http://www.w3.org/2000/svg"
   xmlns:sodipodi="http://sodipodi.sourceforge.net/DTD/sodipodi-0.dtd"
   xmlns:inkscape="http://www.inkscape.org/namespaces/inkscape"
   width="121.356mm"
   height="172.508mm"
   viewBox="0 0 344 489"
   version="1.2"
   id="svg456"
   sodipodi:docname="Heart.svg"
   inkscape:version="0.92.4 5da689c313, 2019-01-14">
  <metadata
     id="metadata460">
    <rdf:RDF>
      <cc:Work
         rdf:about="">
        <dc:format>image/svg+xml</dc:format>
        <dc:type
           rdf:resource="http://purl.org/dc/dcmitype/StillImage" />
      </cc:Work>
    </rdf:RDF>
  </metadata>
  <sodipodi:namedview
     pagecolor="#ffffff"
     bordercolor="#666666"
     borderopacity="1"
     objecttolerance="10"
     gridtolerance="10"
     guidetolerance="10"
     inkscape:pageopacity="0"
     inkscape:pageshadow="2"
     inkscape:window-width="1664"
     inkscape:window-height="907"
     id="namedview458"
     showgrid="false"
     inkscape:zoom="1.0237885"
     inkscape:cx="229.33418"
     inkscape:cy="325.99936"
     inkscape:window-x="48"
     inkscape:window-y="28"
     inkscape:window-maximized="1"
     inkscape:current-layer="svg456" />
  <title
     id="title2">OMEdit - OpenModelica Connection Editor</title>
  <desc
     id="desc4">Generated by OMEdit - OpenModelica Connection Editor</desc>
  <defs
     id="defs6" />
  <path
     d="m 69.92878,370.48148 c 0,0 16.42654,22.32984 34.64968,35.67616 0,0 18.22314,13.34658 43.8893,20.78986 0,0 25.66639,7.44328 50.81944,13.08996 0,0 25.15308,5.64642 43.88946,6.15992 0,0 18.73638,0.51324 28.74638,-10.78012 0,0 10.00974,-11.2931 15.91304,-28.74612 0,0 5.9033,-17.45328 6.93004,-39.013 0,0 1.02648,-21.55964 -5.13344,-41.83603 0,0 -6.15992,-20.27641 -14.11644,-43.11949 0,0 -7.95652,-22.84308 -16.16992,-30.7996 0,0 -8.21314,-7.95652 -21.3031,-4.87656 0,0 -13.0897,3.07996 -25.66616,-11.8066 0,0 -12.57656,-14.88656 -32.85298,-16.68316 0,0 -20.27641,-1.7966 -42.34942,3.33684 0,0 -22.07296,5.13318 -31.56946,13.34658 0,0 -9.49676,8.21314 -21.30336,26.43628 0,0 -11.80634,18.22288 -21.04622,37.986 0,0 -9.23988,19.76309 -9.4965,34.13624 0,0 -0.25688,14.37316 16.16966,36.70284"
     id="path56"
     inkscape:connector-curvature="0"
     style="font-style:normal;font-weight:400;font-size:10px;font-family:Cantarell;vector-effect:non-scaling-stroke;fill:#550000;fill-opacity:1;fill-rule:evenodd;stroke:#000000;stroke-width:2.45669317;stroke-linecap:square;stroke-linejoin:miter;stroke-miterlimit:2;stroke-opacity:1" />
  <path
     d="m 51.184614,351.2233 c 0,0 -4.363294,-2.56672 -9.753354,-16.68316 0,0 -5.3898,-14.11644 -9.23962,-32.85282 0,0 -3.85008,-18.73643 -3.59346,-38.75615 0,0 0.25662,-20.01971 3.5932,-34.64965 0,0 3.33684,-14.62968 7.95678,-24.8963 0,0 4.61994,-10.26662 12.833158,-13.34658 0,0 8.213192,-3.07996 17.966416,-1.7966 0,0 9.753198,1.28336 11.54985,2.82334 0,0 1.796626,1.53998 0.256646,10.26662 0,0 -1.53998,8.72638 2.053324,10.26636 0,0 3.593278,1.53998 20.276386,2.82334 0,0 16.68316,1.28336 18.47976,4.36332 0,0 1.7966,3.07996 -4.1067,10.52324 0,0 -5.90304,7.44328 -17.1963,22.84305 0,0 -11.293226,15.39978 -21.559768,32.5962 0,0 -10.266542,17.19643 -15.656472,29.25965 0,0 -5.38993,12.06322 -6.416566,20.27636 0,0 -1.026662,8.21314 -2.053324,13.85982 0,0 -1.026662,5.64668 -5.389956,3.07996"
     id="path64"
     inkscape:connector-curvature="0"
     style="font-style:normal;font-weight:400;font-size:10px;font-family:Cantarell;vector-effect:non-scaling-stroke;fill:#ffaa7f;fill-opacity:1;fill-rule:evenodd;stroke:#000000;stroke-width:2.45669317;stroke-linecap:square;stroke-linejoin:miter;stroke-miterlimit:2;stroke-opacity:1" />
  <path
     d="m 206.46993,207.24757 c 0,0 -3.59328,4.36327 -4.87659,7.18658 0,0 -1.28336,2.82329 -0.77012,8.98321 0,0 0.5135,6.15992 3.59343,5.64658 0,0 3.07994,-0.51332 10.00985,9.49655 0,0 6.92991,10.00987 13.85982,11.54985 0,0 6.92991,1.53998 17.96641,-0.25667 0,0 11.03651,-1.79663 10.52327,-8.21322 0,0 -0.51324,-6.41657 -4.61991,-11.03651 0,0 -4.10668,-4.61995 -6.92999,-14.37316 0,0 -2.82329,-9.7532 -11.03651,-13.85985 0,0 -8.21324,-4.10667 -16.16979,-1.79665 0,0 -7.95657,2.31 -11.54987,6.67329"
     id="path72"
     inkscape:connector-curvature="0"
     style="font-style:normal;font-weight:400;font-size:10px;font-family:Cantarell;vector-effect:non-scaling-stroke;fill:#ffaa7f;fill-opacity:1;fill-rule:evenodd;stroke:#000000;stroke-width:2.45669317;stroke-linecap:square;stroke-linejoin:miter;stroke-miterlimit:2;stroke-opacity:1" />
  <path
     d="m 179.00896,143.08394 c 0,0 8.983,7.95652 12.31958,13.34645 0,0 3.33658,5.38993 11.29323,1.28336 0,0 7.95665,-4.10657 31.05635,-3.33671 0,0 23.0997,0.77002 39.78286,4.10665 0,0 16.68316,3.33663 27.71964,5.6466 0,0 11.03648,2.30997 11.2931,12.83316 0,0 0.25662,10.52321 -0.25662,17.45312 0,0 -0.51324,6.92991 -3.84982,10.77989 0,0 -3.33684,3.85 -20.53324,0 0,0 -17.1964,-3.84998 -36.1894,-6.92994 0,0 -18.99316,-3.07996 -30.79968,0.25665 0,0 -11.80652,3.33663 -16.42646,12.31989 0,0 -4.61994,8.98326 -4.10662,12.31984 0,0 0.51334,3.33658 -8.21322,0.76986 0,0 -8.72664,-2.56646 -23.86982,-2.05322 0,0 -15.14292,0.51324 -22.84282,2.3101 0,0 -7.6999,1.7966 -3.33684,-6.15992 0,0 4.36332,-7.95678 6.93004,-17.70995 0,0 2.56672,-9.75315 4.36332,-15.65642 0,0 1.7966,-5.90326 -2.56672,-18.73646 0,0 -4.36332,-12.83321 7.44328,-21.81621 0,0 11.8066,-8.98326 20.78986,-1.02674"
     id="path80"
     inkscape:connector-curvature="0"
     style="font-style:normal;font-weight:400;font-size:10px;font-family:Cantarell;vector-effect:non-scaling-stroke;fill:#aaaaff;fill-opacity:1;fill-rule:evenodd;stroke:#000000;stroke-width:2.45669317;stroke-linecap:square;stroke-linejoin:miter;stroke-miterlimit:2;stroke-opacity:1" />
  <path
     d="m 143.8364,206.48442 c 0,0 4.61986,-16.93978 6.92983,-32.08296 0,0 2.30997,-15.14318 7.18656,-23.0997 0,0 4.87661,-7.95649 12.57651,-9.75315 0,0 7.6999,-1.79662 13.85982,-0.76999 0,0 6.15992,1.02667 8.72656,7.44321 0,0 2.56664,6.41651 3.07996,10.00971 0,0 0.51332,3.59346 15.143,-0.76986 0,0 14.62994,-4.36332 29.5165,-1.53998 0,0 14.88656,2.82334 14.11644,-2.05322 0,0 -0.77012,-4.87656 -2.56672,-17.70974 0,0 -1.7966,-12.83321 -7.18666,-25.66637 0,0 -5.3898,-12.833186 -9.23988,-17.96647 0,0 -3.84982,-5.13318 -0.25662,-8.72664 0,0 3.5932,-3.5932 12.57672,-11.80634 0,0 8.98326,-8.21314 15.3998,-12.57646 0,0 6.41654,-4.36332 3.84982,-8.47002 0,0 -2.56672,-4.1067 -5.3898,-6.15992 0,0 -2.82334,-2.05322 -5.39006,-2.56646 0,0 -2.56672,-0.5135 -14.1167,9.23962 0,0 -11.54972,9.75338 -16.6829,16.16992 0,0 -5.13318,6.41654 0.77012,-1.02674 0,0 5.90304,-7.44328 8.72638,-12.31984 0,0 2.82334,-4.87656 5.64668,-8.21314 0,0 2.82334,-3.33658 1.7966,-6.15992 0,0 -1.02674,-2.82334 -3.85008,-5.64668 0,0 -2.82308,-2.82334 -6.41628,-3.5932 0,0 -3.59346,-0.77012 -5.9033,1.02674 0,0 -2.3101,1.7966 -11.54998,11.8066 0,0 -9.23988,10.00974 -15.3998,14.37306 0,0 -6.15992,4.36306 -13.3465,5.13318 0,0 -7.18656,0.76986 -13.08982,-1.53998 0,0 -5.90326,-2.3101 -9.49654,-4.6202 0,0 -3.5933,-2.30984 -5.6466,-8.983 0,0 -2.0533,-6.67316 -4.61994,-14.37306 0,0 -2.56664,-7.6999 -4.36327,-13.08996 0,0 -1.79665,-5.3898 -2.31015,-6.41654 0,0 -0.51324,-1.02674 -2.30984,-0.51324 0,0 -1.7966,0.51324 -6.15992,2.6949 0,0 -4.36306,2.18166 -8.72638,4.36332 0,0 -4.36332,2.18166 -3.07996,9.62494 0,0 1.2831,7.44302 2.56646,14.11618 0,0 1.28336,6.67342 1.41154,11.80686 0,0 0.12844,5.13318 0.25688,10.26636 0,0 0.12818,5.13318 -8.34184,19.76312 0,0 -8.46976,14.62978 -15.3998,29.51627 0,0 -6.92978,14.88648 -11.54972,28.48957 0,0 -4.61994,13.6031 -7.95652,30.7995 0,0 -3.33658,17.19666 -5.13318,24.63994 0,0 -1.7966,7.44328 -2.3101,11.2931 0,0 -0.51324,3.85008 19.24988,4.6202 0,0 19.76312,0.76986 21.3031,2.82308 0,0 1.53998,2.05322 -1.02674,7.95652 0,0 -2.56672,5.9033 4.36332,3.84982 0,0 6.92978,-2.05322 11.03648,-4.36332 0,0 4.1067,-2.30984 8.72664,-19.24962"
     id="path96"
     inkscape:connector-curvature="0"
     style="font-style:normal;font-weight:400;font-size:10px;font-family:Cantarell;vector-effect:non-scaling-stroke;fill:#aa0000;fill-opacity:1;fill-rule:evenodd;stroke:#000000;stroke-width:2.45669317;stroke-linecap:square;stroke-linejoin:miter;stroke-miterlimit:2;stroke-opacity:1" />
  <path
     d="m 251.58034,227.64156 c 0,0 0.72819,-0.58256 10.77718,-0.43693 0,0 10.049,0.14565 10.77719,-0.58256 0,0 0.7282,-0.72818 0.7282,-3.05838 0,0 0,-2.3302 0,-7.57315 0,0 0,-5.24296 -0.7282,-6.55369 0,0 -0.72819,-1.31074 -1.16509,-2.47585 0,0 -0.4369,-1.16511 -3.20403,-1.16511 0,0 -2.76713,0 -8.88392,0 0,0 -6.11676,0 -5.67985,-0.72818 0,0 0.4369,-0.72819 1.60201,-1.16509 0,0 1.16512,-0.43693 8.15571,-1.45639 0,0 6.99062,-1.01946 -0.87383,-2.47585 0,0 -7.86443,-1.45636 -16.02014,-2.18455 0,0 -8.1557,-0.7282 -20.28681,-0.21486 0,0 -12.13108,0.51332 -11.0006,1.90047 0,0 1.13048,1.38715 7.90764,1.74764 0,0 6.77708,0.36052 10.56367,1.88612 0,0 3.78656,1.5256 5.82548,3.8558 0,0 2.03895,2.3302 4.07787,6.40805 0,0 2.03892,4.07785 2.62147,6.26243 0,0 0.58256,2.18457 2.33021,5.3886 0,0 1.74765,3.20403 2.47584,2.62148"
     id="path104"
     inkscape:connector-curvature="0"
     style="font-style:normal;font-weight:400;font-size:10px;font-family:Cantarell;vector-effect:non-scaling-stroke;fill:#aa0000;fill-opacity:1;fill-rule:evenodd;stroke:#000000;stroke-width:2.45669317;stroke-linecap:square;stroke-linejoin:miter;stroke-miterlimit:2;stroke-opacity:1" />
  <path
     d="m 51.77406,180.17164 c 0,0 2.18478,-10.4858 3.78664,-22.57372 0,0 1.60212,-12.08792 3.49544,-29.56447 0,0 1.89332,-17.47653 2.76692,-26.06916 0,0 0.87386,-8.59261 1.74772,-17.18522 0,0 0.87386,-8.59261 2.33012,-15.87443 0,0 1.45652,-7.28208 2.76744,-14.8551 0,0 1.31066,-7.57328 2.76692,-15.58336 0,0 1.456364,-8.01008 1.893294,-9.7578 0,0 0.436904,-1.74746 3.932214,-2.76692 0,0 3.49531,-1.01946 6.844968,-1.31092 0,0 3.349658,-0.2912 7.281898,0.72826 0,0 3.932214,1.01946 6.116773,2.47598 0,0 2.184559,1.45626 2.475834,2.03866 0,0 0.291279,0.58266 0.873819,13.39884 0,0 0.58255,12.81618 1.01945,18.05908 0,0 0.43693,5.2429 1.45639,6.40822 0,0 1.01946,1.16506 6.55369,-2.47598 0,0 5.53426,-3.64104 11.06851,-7.42742 0,0 5.53426,-3.78664 8.73824,-4.9517 0,0 3.20398,-1.16506 7.13622,-0.72826 0,0 3.93224,0.4368 5.97116,3.05838 0,0 2.03892,2.62158 3.34984,5.82556 0,0 1.31066,3.20398 1.45626,7.28182 0,0 0.1456,4.07784 -1.74772,5.82556 0,0 -1.89332,1.74772 -16.02016,11.651016 0,0 -14.12684,9.903322 -17.4765,14.418094 0,0 -3.34966,4.51477 -3.93221,9.61208 0,0 -0.58256,5.09731 -5.67988,17.76784 0,0 -5.097312,12.67053 -8.738266,25.19525 0,0 -3.640936,12.52498 -5.971134,23.15638 0,0 -2.330198,10.63166 -3.204032,15.43776 0,0 -0.873834,4.80584 -18.059158,2.03892 0,0 -17.18522,-2.76718 -15.0007,-13.25324"
     id="path112"
     inkscape:connector-curvature="0"
     style="font-style:normal;font-weight:400;font-size:10px;font-family:Cantarell;vector-effect:non-scaling-stroke;fill:#aaffff;fill-opacity:1;fill-rule:evenodd;stroke:#000000;stroke-width:2.45669317;stroke-linecap:square;stroke-linejoin:miter;stroke-miterlimit:2;stroke-opacity:1" />
  <path
     d="m 310.01,185.478 c 0,10.31004 -3.88796,18.668 -8.684,18.668 -4.79604,0 -8.684,-8.35796 -8.684,-18.668 0,-10.31004 3.88796,-18.668 8.684,-18.668 4.79604,0 8.684,8.35796 8.684,18.668"
     id="path120"
     inkscape:connector-curvature="0"
     style="font-style:normal;font-weight:400;font-size:10px;font-family:Cantarell;vector-effect:non-scaling-stroke;fill:#000000;fill-opacity:1;fill-rule:evenodd;stroke:#000000;stroke-width:2.45669317;stroke-linecap:square;stroke-linejoin:miter;stroke-miterlimit:2;stroke-opacity:1" />
  <path
     d="m 141.46121,62.90632 c 1.70174,4.675479 1.45688,9.056913 -0.54689,9.786227 -2.00377,0.729311 -5.00768,-2.46967 -6.70941,-7.145149 -1.70173,-4.675471 -1.45687,-9.056916 0.54689,-9.786227 2.00377,-0.729314 5.00768,2.469678 6.70941,7.145149"
     id="path128"
     inkscape:connector-curvature="0"
     style="font-style:normal;font-weight:400;font-size:10px;font-family:Cantarell;vector-effect:non-scaling-stroke;fill:#000000;fill-opacity:1;fill-rule:evenodd;stroke:#000000;stroke-width:2.45669222;stroke-linecap:square;stroke-linejoin:miter;stroke-miterlimit:2;stroke-opacity:1" />
</svg>
