<?xml version="1.0" encoding="UTF-8" standalone="no"?>
<!-- Created with Inkscape (http://www.inkscape.org/) -->

<svg
   xmlns:dc="http://purl.org/dc/elements/1.1/"
   xmlns:cc="http://creativecommons.org/ns#"
   xmlns:rdf="http://www.w3.org/1999/02/22-rdf-syntax-ns#"
   xmlns:svg="http://www.w3.org/2000/svg"
   xmlns="http://www.w3.org/2000/svg"
   xmlns:sodipodi="http://sodipodi.sourceforge.net/DTD/sodipodi-0.dtd"
   xmlns:inkscape="http://www.inkscape.org/namespaces/inkscape"
   width="100mm"
   height="100mm"
   viewBox="0 0 354.33067 354.33071"
   id="svg4153"
   version="1.1"
   inkscape:version="0.92.4 5da689c313, 2019-01-14"
   sodipodi:docname="UCC.svg">
  <defs
     id="defs4155" />
  <sodipodi:namedview
     id="base"
     pagecolor="#ffffff"
     bordercolor="#666666"
     borderopacity="1.0"
     inkscape:pageopacity="0.0"
     inkscape:pageshadow="2"
     inkscape:zoom="1.4"
     inkscape:cx="253.21182"
     inkscape:cy="192.31448"
     inkscape:document-units="px"
     inkscape:current-layer="layer1"
     showgrid="false"
     fit-margin-top="0"
     fit-margin-left="0"
     fit-margin-right="0"
     fit-margin-bottom="0"
     inkscape:window-width="1664"
     inkscape:window-height="907"
     inkscape:window-x="48"
     inkscape:window-y="28"
     inkscape:window-maximized="1"
     inkscape:snap-bbox="true"
     inkscape:bbox-paths="true"
     inkscape:bbox-nodes="true"
     inkscape:snap-bbox-edge-midpoints="true"
     inkscape:snap-bbox-midpoints="true"
     inkscape:object-paths="true"
     inkscape:snap-intersection-paths="true"
     inkscape:object-nodes="true"
     inkscape:snap-smooth-nodes="true"
     inkscape:snap-midpoints="true"
     inkscape:snap-object-midpoints="true"
     inkscape:snap-center="true"
     inkscape:snap-text-baseline="true"
     inkscape:snap-page="true"
     inkscape:snap-global="false" />
  <metadata
     id="metadata4158">
    <rdf:RDF>
      <cc:Work
         rdf:about="">
        <dc:format>image/svg+xml</dc:format>
        <dc:type
           rdf:resource="http://purl.org/dc/dcmitype/StillImage" />
        <dc:title />
      </cc:Work>
    </rdf:RDF>
  </metadata>
  <g
     inkscape:label="Ebene 1"
     inkscape:groupmode="layer"
     id="layer1">
    <circle
       r="173.53917"
       cy="177.16534"
       cx="177.16531"
       id="path5412"
       style="opacity:1;fill:none;fill-opacity:1;fill-rule:evenodd;stroke:#000000;stroke-width:7.087;stroke-linecap:round;stroke-linejoin:miter;stroke-miterlimit:4;stroke-dasharray:none;stroke-dashoffset:0;stroke-opacity:1" />
    <path
       d="m 112.25211,265.32487 c 0,0 11.56276,15.71813 24.39016,25.1127 0,0 12.8274,9.39475 30.89399,14.63414 0,0 18.06676,5.23937 35.77216,9.2141 0,0 17.70545,3.97457 30.8941,4.33602 0,0 13.18868,0.36127 20.23479,-7.5882 0,0 7.04593,-7.9493 11.20131,-20.2346 0,0 4.15537,-12.28549 4.87809,-27.46153 0,0 0.72255,-15.17598 -3.61345,-29.44867 0,0 -4.33601,-14.27272 -9.93667,-30.35212 0,0 -5.60065,-16.0794 -11.38213,-21.68006 0,0 -5.78128,-5.60065 -14.99539,-3.43264 0,0 -9.21394,2.168 -18.0666,-8.31074 0,0 -8.85272,-10.47877 -23.12544,-11.7434 0,0 -14.27271,-1.26464 -29.81007,2.34882 0,0 -15.5373,3.61328 -22.22196,9.39476 0,0 -6.68484,5.78128 -14.99559,18.60868 0,0 -8.31056,12.82722 -14.81458,26.73861 0,0 -6.50402,13.91137 -6.68466,24.02875 0,0 -0.18081,10.11736 11.38194,25.83538"
       id="path56"
       inkscape:connector-curvature="0"
       style="font-style:normal;font-weight:400;font-size:10px;font-family:Cantarell;vector-effect:non-scaling-stroke;fill:#550000;fill-opacity:1;fill-rule:evenodd;stroke:#000000;stroke-width:0.93749994;stroke-linecap:square;stroke-linejoin:miter;stroke-miterlimit:2;stroke-opacity:1;stroke-dasharray:none" />
    <path
       d="m 99.057961,251.7689 c 0,0 -3.071352,-1.80672 -6.865455,-11.74339 0,0 -3.793919,-9.93666 -6.503834,-23.12534 0,0 -2.710098,-13.1887 -2.529461,-27.28072 0,0 0.180636,-14.09202 2.529279,-24.39013 0,0 2.348825,-10.29794 5.600834,-17.52468 0,0 3.252008,-7.22676 9.033346,-9.39476 0,0 5.78133,-2.16801 12.64669,-1.26464 0,0 6.86535,0.90337 8.13003,1.98737 0,0 1.26465,1.08401 0.18065,7.22674 0,0 -1.084,6.14256 1.44535,7.22657 0,0 2.52934,1.08399 14.27269,1.98737 0,0 11.7434,0.90336 13.00804,3.07137 0,0 1.26464,2.168 -2.89074,7.40738 0,0 -4.15518,5.23938 -12.1046,16.07939 0,0 -7.94937,10.84001 -15.17607,22.9447 0,0 -7.22669,12.10468 -11.0207,20.59607 0,0 -3.79401,8.49138 -4.51667,14.27267 0,0 -0.72267,5.7813 -1.44535,9.75603 0,0 -0.72267,3.97473 -3.794029,2.168"
       id="path64"
       inkscape:connector-curvature="0"
       style="font-style:normal;font-weight:400;font-size:10px;font-family:Cantarell;vector-effect:non-scaling-stroke;fill:#ffaa7f;fill-opacity:1;fill-rule:evenodd;stroke:#000000;stroke-width:0.93749994;stroke-linecap:square;stroke-linejoin:miter;stroke-miterlimit:2;stroke-opacity:1;stroke-dasharray:none" />
    <path
       d="m 208.36439,150.42336 c 0,0 -2.52932,3.07135 -3.43265,5.05869 0,0 -0.90337,1.98733 -0.5421,6.32334 0,0 0.36147,4.33601 2.52945,3.97467 0,0 2.16799,-0.36132 7.046,6.68468 0,0 4.87801,7.04603 9.75603,8.13003 0,0 4.87801,1.08401 12.64667,-0.18067 0,0 7.76869,-1.26466 7.40742,-5.78134 0,0 -0.36128,-4.51668 -3.25199,-7.76868 0,0 -2.89073,-3.25202 -4.87807,-10.11737 0,0 -1.98734,-6.86535 -7.76868,-9.75605 0,0 -5.78137,-2.89071 -11.38203,-1.26466 0,0 -5.60069,1.62602 -8.13005,4.69736"
       id="path72"
       inkscape:connector-curvature="0"
       style="font-style:normal;font-weight:400;font-size:10px;font-family:Cantarell;vector-effect:non-scaling-stroke;fill:#ffaa7f;fill-opacity:1;fill-rule:evenodd;stroke:#000000;stroke-width:0.93749994;stroke-linecap:square;stroke-linejoin:miter;stroke-miterlimit:2;stroke-opacity:1;stroke-dasharray:none" />
    <path
       d="m 189.03443,105.25813 c 0,0 6.3232,5.60065 8.67183,9.39466 0,0 2.34866,3.79401 7.9494,0.90337 0,0 5.60074,-2.89064 21.86078,-2.34874 0,0 16.26004,0.54203 28.00344,2.8907 0,0 11.74339,2.34868 19.51205,3.97468 0,0 7.76865,1.62602 7.94929,9.03336 0,0 0.18063,7.40736 -0.18064,12.28537 0,0 -0.36126,4.87802 -2.70991,7.58805 0,0 -2.34882,2.71003 -14.45349,0 0,0 -12.10468,-2.71003 -25.47398,-4.87804 0,0 -13.36942,-2.168 -21.68011,0.18066 0,0 -8.3107,2.34868 -11.5627,8.67205 0,0 -3.25201,6.32338 -2.89069,8.67203 0,0 0.36135,2.34865 -5.78134,0.54191 0,0 -6.14273,-1.80655 -16.80212,-1.44527 0,0 -10.65921,0.36126 -16.07924,1.62608 0,0 -5.42001,1.26465 -2.34882,-4.33599 0,0 3.07137,-5.60085 4.87811,-12.46617 0,0 1.80673,-6.86531 3.07137,-11.02067 0,0 1.26464,-4.15534 -1.80674,-13.18873 0,0 -3.07137,-9.03339 5.23938,-15.35659 0,0 8.31075,-6.323363 14.63413,-0.72272"
       id="path80"
       inkscape:connector-curvature="0"
       style="font-style:normal;font-weight:400;font-size:10px;font-family:Cantarell;vector-effect:non-scaling-stroke;fill:#aaaaff;fill-opacity:1;fill-rule:evenodd;stroke:#000000;stroke-width:0.93749994;stroke-linecap:square;stroke-linejoin:miter;stroke-miterlimit:2;stroke-opacity:1;stroke-dasharray:none" />
    <path
       d="m 164.27622,149.88617 c 0,0 3.25195,-11.92403 4.87795,-22.58342 0,0 1.62601,-10.65939 5.05867,-16.26003 0,0 3.43269,-5.60063 8.8527,-6.86532 0,0 5.42001,-1.26465 9.75602,-0.542 0,0 4.33601,0.72268 6.14269,5.23932 0,0 1.80668,4.51663 2.16801,7.04592 0,0 0.36133,2.52945 10.65926,-0.54192 0,0 10.29812,-3.07136 20.77688,-1.08399 0,0 10.47875,1.98736 9.93665,-1.44529 0,0 -0.54209,-3.43264 -1.80673,-12.46601 0,0 -1.26464,-9.033383 -5.05874,-18.066734 0,0 -3.79392,-9.03337 -6.50401,-12.646729 0,0 -2.70992,-3.613284 -0.18063,-6.142744 0,0 2.52927,-2.529278 8.85283,-8.310566 0,0 6.32339,-5.781288 10.84003,-8.85266 0,0 4.51664,-3.071371 2.70991,-5.962107 0,0 -1.80672,-2.890735 -3.7939,-4.336011 0,0 -1.98739,-1.445276 -3.7941,-1.806549 0,0 -1.80675,-0.361456 -9.93686,6.503834 0,0 -8.12992,6.865473 -11.74321,11.382122 0,0 -3.61328,4.516647 0.5421,-0.72273 0,0 4.15518,-5.239378 6.14255,-8.672024 0,0 1.98738,-3.432644 3.97475,-5.781287 0,0 1.98736,-2.348642 1.26463,-4.336011 0,0 -0.72272,-1.987369 -2.7101,-3.974738 0,0 -1.98719,-1.987364 -4.51647,-2.529283 0,0 -2.52946,-0.542089 -4.15536,0.722732 0,0 -1.6261,1.264641 -8.13012,8.31075 0,0 -6.50402,7.045928 -10.84002,10.1173 0,0 -4.33601,3.071188 -9.39471,3.613282 0,0 -5.05866,0.54191 -9.21401,-1.084003 0,0 -4.15535,-1.626096 -6.68468,-3.252192 0,0 -2.52935,-1.625913 -3.97468,-6.323197 0,0 -1.44533,-4.697284 -3.25201,-10.117299 0,0 -1.80667,-5.420018 -3.07134,-9.214119 0,0 -1.26467,-3.79392 -1.62613,-4.51664 0,0 -0.36127,-0.722733 -1.62591,-0.361276 0,0 -1.26464,0.361276 -4.33601,1.896966 0,0 -3.07119,1.535678 -6.14257,3.071357 0,0 -3.07137,1.53569 -2.16801,6.775075 0,0 0.90319,5.239189 1.80656,9.936475 0,0 0.90336,4.697466 0.99359,8.310931 0,0 0.0905,3.613282 0.18082,7.226564 0,0 0.0902,3.613282 -5.87188,13.9114 0,0 -5.96193,10.298006 -10.84002,20.776708 0,0 -4.87793,10.4787 -8.12995,20.054023 0,0 -3.252,9.57532 -5.60064,21.67998 0,0 -2.34864,12.10485 -3.61328,17.34423 0,0 -1.26464,5.23938 -1.6261,7.94929 0,0 -0.36127,2.7101 13.55013,3.2522 0,0 13.9114,0.54191 14.99541,1.98718 0,0 1.084,1.44528 -0.72274,5.60065 0,0 -1.80672,4.15537 3.07138,2.70991 0,0 4.87791,-1.44527 7.76865,-3.07137 0,0 2.89074,-1.62592 6.14275,-13.54995"
       id="path96"
       inkscape:connector-curvature="0"
       style="font-style:normal;font-weight:400;font-size:10px;font-family:Cantarell;vector-effect:non-scaling-stroke;fill:#aa0000;fill-opacity:1;fill-rule:evenodd;stroke:#000000;stroke-width:0.93749994;stroke-linecap:square;stroke-linejoin:miter;stroke-miterlimit:2;stroke-opacity:1;stroke-dasharray:none" />
    <path
       d="m 240.11794,164.77884 c 0,0 0.51258,-0.41007 7.58613,-0.30756 0,0 7.07357,0.10255 7.58614,-0.41007 0,0 0.51259,-0.51257 0.51259,-2.15281 0,0 0,-1.64025 0,-5.3308 0,0 0,-3.69055 -0.51259,-4.61319 0,0 -0.51257,-0.92264 -0.82011,-1.74277 0,0 -0.30753,-0.82013 -2.25534,-0.82013 0,0 -1.9478,0 -6.25346,0 0,0 -4.30563,0 -3.99808,-0.51257 0,0 0.30753,-0.51257 1.12766,-0.8201 0,0 0.82014,-0.30756 5.74087,-1.02518 0,0 4.92075,-0.7176 -0.6151,-1.74277 0,0 -5.53583,-1.02512 -11.27668,-1.53771 0,0 -5.74087,-0.51258 -14.28004,-0.15124 0,0 -8.53915,0.36133 -7.74339,1.33775 0,0 0.79575,0.97643 5.56624,1.23018 0,0 4.77042,0.25378 7.43583,1.32765 0,0 2.66539,1.07388 4.10061,2.71412 0,0 1.43522,1.64025 2.87043,4.51068 0,0 1.43521,2.87043 1.84528,4.40817 0,0 0.41006,1.53773 1.64025,3.79307 0,0 1.23019,2.25534 1.74276,1.84528"
       id="path104"
       inkscape:connector-curvature="0"
       style="font-style:normal;font-weight:400;font-size:10px;font-family:Cantarell;vector-effect:non-scaling-stroke;fill:#aa0000;fill-opacity:1;fill-rule:evenodd;stroke:#000000;stroke-width:0.93749994;stroke-linecap:square;stroke-linejoin:miter;stroke-miterlimit:2;stroke-opacity:1;stroke-dasharray:none" />
    <path
       d="m 99.472876,131.36443 c 0,0 1.537884,-7.38103 2.665444,-15.88981 0,0 1.12774,-8.50876 2.46046,-20.810633 0,0 1.33273,-12.301858 1.94766,-18.350267 0,0 0.61512,-6.048399 1.23023,-12.096801 0,0 0.61512,-6.048399 1.64019,-11.174124 0,0 1.02525,-5.125908 1.94802,-10.45661 0,0 0.92258,-5.330886 1.94766,-10.969238 0,0 1.02514,-5.638352 1.3327,-6.868587 0,0 0.30754,-1.230042 2.76791,-1.947648 0,0 2.46038,-0.717605 4.81822,-0.922773 0,0 2.35785,-0.204975 5.12578,0.51263 0,0 2.76791,0.717606 4.30565,1.742866 0,0 1.53772,1.025068 1.74275,1.435017 0,0 0.20504,0.410143 0.6151,9.431543 0,0 0.41006,9.0214 0.71759,12.711914 0,0 0.30756,3.690514 1.02516,4.510792 0,0 0.71761,0.820094 4.61319,-1.74286 0,0 3.8956,-2.562954 7.79121,-5.228214 0,0 3.8956,-2.665442 6.1509,-3.485536 0,0 2.25532,-0.820095 5.02324,-0.512628 0,0 2.76793,0.307467 4.20314,2.152816 0,0 1.43521,1.845348 2.35797,4.100653 0,0 0.9226,2.255304 1.02508,5.125723 0,0 0.10243,2.870422 -1.23023,4.100654 0,0 -1.33273,1.230232 -11.27671,8.201234 0,0 -9.94397,6.97102 -12.30183,10.148998 0,0 -2.35786,3.177978 -2.76792,6.766013 0,0 -0.41006,3.588033 -3.99811,12.506903 0,0 -3.58802,8.918883 -6.15092,17.735123 0,0 -2.56287,8.81642 -4.20312,16.29993 0,0 -1.64025,7.48371 -2.25534,10.86675 0,0 -0.61509,3.38287 -12.71197,1.43521 0,0 -12.096803,-1.94783 -10.559104,-9.32904"
       id="path112"
       inkscape:connector-curvature="0"
       style="font-style:normal;font-weight:400;font-size:10px;font-family:Cantarell;vector-effect:non-scaling-stroke;fill:#aaffff;fill-opacity:1;fill-rule:evenodd;stroke:#000000;stroke-width:0.93749994;stroke-linecap:square;stroke-linejoin:miter;stroke-miterlimit:2;stroke-opacity:1;stroke-dasharray:none" />
    <path
       d="m 281.24699,135.09961 c 0,7.25731 -2.73676,13.14054 -6.11273,13.14054 -3.37596,0 -6.11273,-5.88323 -6.11273,-13.14054 0,-7.25731 2.73677,-13.14053 6.11273,-13.14053 3.37597,0 6.11273,5.88322 6.11273,13.14053"
       id="path120"
       inkscape:connector-curvature="0"
       style="font-style:normal;font-weight:400;font-size:10px;font-family:Cantarell;vector-effect:non-scaling-stroke;fill:#000000;fill-opacity:1;fill-rule:evenodd;stroke:none;stroke-width:0.93749994;stroke-linecap:square;stroke-linejoin:miter;stroke-miterlimit:2;stroke-opacity:1;stroke-dasharray:none" />
    <path
       d="m 162.6043,48.820535 c 1.19786,3.291102 1.02552,6.375225 -0.38496,6.888595 -1.41046,0.513367 -3.52494,-1.738419 -4.7228,-5.029521 -1.19786,-3.291098 -1.0255,-6.375229 0.38496,-6.888596 1.41047,-0.513369 3.52494,1.738425 4.7228,5.029522"
       id="path128"
       inkscape:connector-curvature="0"
       style="font-style:normal;font-weight:400;font-size:10px;font-family:Cantarell;vector-effect:non-scaling-stroke;fill:#000000;fill-opacity:1;fill-rule:evenodd;stroke:none;stroke-width:0.93749994;stroke-linecap:square;stroke-linejoin:miter;stroke-miterlimit:2;stroke-opacity:1;stroke-dasharray:none" />
  </g>
</svg>
